# xmcd
#
# Track frame offsets:
#	150
#	11585
#	24132
#	33230
#	45652
#	59002
#	70955
#	83580
#	92942
#	104940
#	119725
#	130590
#	142952
#	152207
#	165310
#
# Disc length: 2385
#
# Revision: 2
# Processed by: cddbd v1.5.1PL0 Copyright (c) Steve Scherf et al.
# Submitted via: audiograbber 1.80.04
# Normalized: r1:DSETVAR1
#
DISCID=c6094f0f
DTITLE=Various Artist - Blues Story #15
DYEAR=1998
DGENRE=Blues
TTITLE0=John Lee Hooker - I Love You Honey
TTITLE1=Jimmy Reed - Shame, Shame, Shame
TTITLE2=Ike Turner - Get It Over Babe
TTITLE3=Rufus Thomas - Tiger Man
TTITLE4=The Staple Singers - Uncloudy Day
TTITLE5=Billy Boy Arnold - I Wish You Would
TTITLE6=Jackie Brenston - Rocket 88
TTITLE7=Rosco Gordon - Just A little Bit
TTITLE8=Willie Nix - Baker Shop Boogie
TTITLE9=Elmore James - It Hurts Me Too
TTITLE10=Howlin' Wolf - Highway Man
TTITLE11=Earl Hooker - Blue Guitar
TTITLE12=Memphis Slim - Rockin' The house
TTITLE13=Pinetop Perkins - Pineteop's Boogie Woogie
TTITLE14=James Cotton - Cotton Crap Blues
EXTD=
EXTT0=
EXTT1=
EXTT2=
EXTT3=
EXTT4=
EXTT5=
EXTT6=
EXTT7=
EXTT8=
EXTT9=
EXTT10=
EXTT11=
EXTT12=
EXTT13=
EXTT14=
PLAYORDER=
